{
    "asset" : {
        "generator" : "Khronos glTF Blender I/O v1.3.48",
        "version" : "2.0"
    },
    "scene" : 0,
    "scenes" : [
        {
            "name" : "Scene",
            "nodes" : [
                3
            ]
        }
    ],
    "nodes" : [
        {
            "mesh" : 0,
            "name" : "mesh_id4",
            "scale" : [
                2.7984704971313477,
                2.7984704971313477,
                2.7984704971313477
            ],
            "translation" : [
                -2.16807222366333,
                0.3747747838497162,
                1.44158935546875
            ]
        },
        {
            "mesh" : 1,
            "name" : "mesh_id5",
            "scale" : [
                2.7984704971313477,
                2.7984704971313477,
                2.7984704971313477
            ],
            "translation" : [
                -2.16807222366333,
                0.3747747838497162,
                1.44158935546875
            ]
        },
        {
            "children" : [
                0,
                1
            ],
            "name" : "node_id6",
            "rotation" : [
                -0.5842320322990417,
                0.19510173797607422,
                0.19065721333026886,
                0.7643677592277527
            ],
            "scale" : [
                0.0010000000474974513,
                0.001000000280328095,
                0.0010000001639127731
            ],
            "translation" : [
                -0.025423720479011536,
                -0.32588303089141846,
                0.25557181239128113
            ]
        },
        {
            "children" : [
                2
            ],
            "name" : "root",
            "translation" : [
                0.03425595909357071,
                0.2765873670578003,
                -0.28084948658943176
            ]
        }
    ],
    "materials" : [
        {
            "alphaCutoff" : 0.5,
            "alphaMode" : "MASK",
            "doubleSided" : true,
            "name" : "72",
            "pbrMetallicRoughness" : {}
        },
        {
            "alphaCutoff" : 0.5,
            "alphaMode" : "MASK",
            "doubleSided" : true,
            "name" : "74",
            "pbrMetallicRoughness" : {}
        }
    ],
    "meshes" : [
        {
            "name" : "mesh_id4",
            "primitives" : [
                {
                    "attributes" : {
                        "POSITION" : 0,
                        "NORMAL" : 1,
                        "TEXCOORD_0" : 2,
                        "COLOR_0" : 3
                    },
                    "indices" : 4,
                    "material" : 0
                }
            ]
        },
        {
            "name" : "mesh_id5",
            "primitives" : [
                {
                    "attributes" : {
                        "POSITION" : 5,
                        "NORMAL" : 6,
                        "TEXCOORD_0" : 7,
                        "COLOR_0" : 8
                    },
                    "indices" : 9,
                    "material" : 1
                }
            ]
        }
    ],
    "accessors" : [
        {
            "bufferView" : 0,
            "componentType" : 5126,
            "count" : 2419,
            "max" : [
                92.25322723388672,
                33.57207107543945,
                211.26986694335938
            ],
            "min" : [
                -90.70379638671875,
                -33.839900970458984,
                -0.5151259899139404
            ],
            "type" : "VEC3"
        },
        {
            "bufferView" : 1,
            "componentType" : 5126,
            "count" : 2419,
            "type" : "VEC3"
        },
        {
            "bufferView" : 2,
            "componentType" : 5126,
            "count" : 2419,
            "type" : "VEC2"
        },
        {
            "bufferView" : 3,
            "componentType" : 5126,
            "count" : 2419,
            "type" : "VEC4"
        },
        {
            "bufferView" : 4,
            "componentType" : 5123,
            "count" : 11136,
            "type" : "SCALAR"
        },
        {
            "bufferView" : 5,
            "componentType" : 5126,
            "count" : 211,
            "max" : [
                17.801424026489258,
                23.623493194580078,
                240.20130920410156
            ],
            "min" : [
                -15.165382385253906,
                -26.1120548248291,
                203.59014892578125
            ],
            "type" : "VEC3"
        },
        {
            "bufferView" : 6,
            "componentType" : 5126,
            "count" : 211,
            "type" : "VEC3"
        },
        {
            "bufferView" : 7,
            "componentType" : 5126,
            "count" : 211,
            "type" : "VEC2"
        },
        {
            "bufferView" : 8,
            "componentType" : 5126,
            "count" : 211,
            "type" : "VEC4"
        },
        {
            "bufferView" : 9,
            "componentType" : 5123,
            "count" : 1032,
            "type" : "SCALAR"
        }
    ],
    "bufferViews" : [
        {
            "buffer" : 0,
            "byteLength" : 29028,
            "byteOffset" : 0
        },
        {
            "buffer" : 0,
            "byteLength" : 29028,
            "byteOffset" : 29028
        },
        {
            "buffer" : 0,
            "byteLength" : 19352,
            "byteOffset" : 58056
        },
        {
            "buffer" : 0,
            "byteLength" : 38704,
            "byteOffset" : 77408
        },
        {
            "buffer" : 0,
            "byteLength" : 22272,
            "byteOffset" : 116112
        },
        {
            "buffer" : 0,
            "byteLength" : 2532,
            "byteOffset" : 138384
        },
        {
            "buffer" : 0,
            "byteLength" : 2532,
            "byteOffset" : 140916
        },
        {
            "buffer" : 0,
            "byteLength" : 1688,
            "byteOffset" : 143448
        },
        {
            "buffer" : 0,
            "byteLength" : 3376,
            "byteOffset" : 145136
        },
        {
            "buffer" : 0,
            "byteLength" : 2064,
            "byteOffset" : 148512
        }
    ],
    "buffers" : [
        {
            "byteLength" : 150576,
            "uri" : "data:application/octet-stream;base64,"
        }
    ]
}
